<svg xmlns="http://www.w3.org/2000/svg" width="70" height="38" viewBox="0 0 70 38" fill="none">
    <path d="M36.955 20.9005C36.955 21.5556 36.993 22.1691 37.0588 22.5018H34.9392L34.8227 21.9273H34.7695C34.3264 22.4473 33.6907 22.6474 33.0019 22.6474C31.6876 22.6474 30.8823 21.6726 30.8823 20.5782C30.8823 18.8157 32.4296 18.0281 34.6024 18.0281V17.9735C34.6024 17.7057 34.4074 17.412 33.5489 17.412C32.8728 17.412 32.1688 17.6511 31.7408 17.8929L31.3382 16.3852C31.7408 16.159 32.6651 15.7847 33.9921 15.7847C36.1902 15.7847 36.9575 17.0402 36.9575 18.6831V20.9005H36.955ZM34.7543 19.4214C33.6933 19.4214 33.1057 19.7152 33.1057 20.3624C33.1057 20.82 33.3919 21.0539 33.8376 21.0539C34.2099 21.0539 34.5973 20.7888 34.7265 20.391C34.7543 20.274 34.7543 20.1415 34.7543 20.0089V19.4214Z" fill="#222220"/>
    <path d="M38.8762 15.7847H41.9791L42.4893 17.806C42.5834 18.1213 42.7169 18.6981 42.866 19.2872H42.9053C43.0125 18.8717 43.1617 18.3462 43.3213 17.7816L43.8994 15.7847H46.9762L47.353 21.9611H45.1213L45.0402 19.7027C45.0271 19.2139 44.9852 18.2704 44.9721 17.5567H44.946C44.6634 18.4855 44.6765 18.5735 44.3547 19.5781L43.63 21.8365H41.8692L41.2518 19.6514C41.0895 19.0501 40.9169 18.1824 40.7677 17.6056H40.7128C40.6866 18.3975 40.6866 19.2872 40.6605 19.7394L40.5663 21.9611H38.4314L38.8762 15.7847Z" fill="#222220"/>
    <path d="M53.8973 21.9611V19.4934C53.8973 18.2404 53.4371 17.5398 52.5066 17.5398C51.5608 17.5398 51.1006 18.1783 51.1006 19.4934V21.9611H48.7257V19.6273C48.7257 17.0735 50.0908 15.7847 52.5731 15.7847C54.9889 15.7847 56.2747 17.0257 56.2747 19.6775V21.9611H53.8973Z" fill="#222220"/>
    <path d="M70 17.7286H68.2163C66.9518 17.7286 66.2477 18.1044 66.2477 18.8681C66.2477 19.6414 66.891 20.0172 68.2163 20.0172H70V21.9611H67.7C65.124 21.9611 63.8235 20.8432 63.8235 18.8131C63.8235 16.8356 65.0743 15.7847 67.7497 15.7847H70V17.7286Z" fill="#222220"/>
    <path d="M20.5885 19.0637H19.6872V21.9609H17.1571V15.0981H19.6872V17.5101H20.5885" fill="#222220"/>
    <path d="M20.588 18.5272C20.588 20.7681 21.9035 21.9609 24.7168 21.9609H29.5096V19.7573H24.5221C23.1941 19.7573 22.4502 19.3909 22.4502 18.5272V18.5319C22.4502 17.6658 23.1916 17.3017 24.5221 17.3017H29.5096V15.0981H24.7168C21.9035 15.0981 20.588 16.291 20.588 18.5319" fill="#222220"/>
    <path d="M61.136 15.7873L60.5058 18.7774C60.4212 19.1132 60.3366 19.5984 60.2548 19.9499H60.1975C60.1129 19.6142 60.0011 19.1289 59.9028 18.7643L59.0762 15.7873H56.2743L58.7952 21.8358C58.8798 21.9984 58.8934 22.106 58.8934 22.1846C58.8934 22.2791 58.8361 22.3866 58.7679 22.481C58.5988 22.6961 58.2768 22.9663 57.9549 23.0869C57.6493 23.2207 57.341 23.302 57.09 23.3414L56.9236 23.3492L56.7517 23.3414L56.7463 25.083L57.5238 25.0856L57.6029 25.3925C58.2468 25.3243 59.1007 25.0961 59.9001 24.422C60.6422 23.7899 61.3161 22.7774 62.3528 20.0024L63.8233 15.7847H61.136V15.7873Z" fill="#222220"/>
    <path d="M47.2016 24.7056V29.6938C47.2016 31.0227 47.7036 31.7657 48.7187 31.7657C49.7506 31.7657 50.2497 31.0886 50.2497 29.6938V24.7056H52.8433V29.5518C52.8433 32.2602 51.3541 33.6271 48.6462 33.6271C46.0108 33.6271 44.608 32.311 44.608 29.4986V24.7056H47.2016Z" fill="#0BBBEF" fill-opacity="0.937255"/>
    <path d="M69.8961 31.194C69.8961 31.8491 69.9341 32.4626 70 32.7953H67.8803L67.7639 32.2208H67.7107C67.2675 32.7407 66.6319 32.9409 65.9431 32.9409C64.6288 32.9409 63.8235 31.9661 63.8235 30.8717C63.8235 29.1092 65.3708 28.3215 67.5435 28.3215V28.2669C67.5435 27.9992 67.3485 27.7054 66.4901 27.7054C65.8139 27.7054 65.1125 27.9446 64.682 28.1863L64.2793 26.6786C64.682 26.4525 65.6063 26.0781 66.9332 26.0781C69.1313 26.0781 69.8987 27.3337 69.8987 28.974V31.194H69.8961ZM67.6195 29.7928C66.6572 29.7928 66.1229 30.0606 66.1229 30.6481C66.1229 31.0614 66.3837 31.2746 66.7864 31.2746C67.1257 31.2746 67.4752 31.0354 67.5917 30.6741C67.617 30.5675 67.617 30.4479 67.617 30.3257V29.7928H67.6195Z" fill="#0BBBEF" fill-opacity="0.937255"/>
    <path d="M59.5128 24.7056L59.4858 25.918C61.4019 26.1415 63.137 27.2885 63.137 29.5282C63.137 31.7406 61.3614 32.8877 59.4858 33.0403L59.5128 35.686H57.1534L57.1939 33.0403C55.3075 32.885 53.5292 31.7379 53.5292 29.5146C53.5292 27.2749 55.2643 26.1415 57.1804 25.918L57.1534 24.7056H59.5128ZM57.1939 27.5256C56.3048 27.8062 55.9859 28.5473 55.9859 29.4574C55.9859 30.4383 56.3183 31.1494 57.1939 31.4164V27.5256ZM59.4695 31.4164C60.3425 31.1358 60.6776 30.4355 60.6776 29.4574C60.6776 28.561 60.3452 27.8199 59.4695 27.5256V31.4164Z" fill="#0BBBEF" fill-opacity="0.937255"/>
    <path d="M18.8702 9.60784C21.3352 9.60784 22.6473 8.19113 22.6473 5.16146V0H20.2234V5.37115C20.2234 6.8013 19.8203 7.6024 18.8702 7.6024H18.8753C17.9227 7.6024 17.5222 6.80399 17.5222 5.37115V0H15.0983V5.16146C15.0983 8.19113 16.4104 9.60784 18.8753 9.60784" fill="#0BBBEF" fill-opacity="0.937255"/>
    <path d="M18.8754 28.1372C16.4104 28.1372 15.0983 29.4527 15.0983 32.266V37.0588H17.5222V32.0713C17.5222 30.7433 17.9253 29.9994 18.8754 29.9994H18.8702C19.8228 29.9994 20.2234 30.7408 20.2234 32.0713V37.0588H22.6473V32.266C22.6473 29.4527 21.3352 28.1372 18.8702 28.1372" fill="#0BBBEF" fill-opacity="0.937255"/>
    <path d="M25.3435 11.7127C27.1811 13.5503 29.1676 13.5205 31.3246 11.3636L34.9998 7.68832L33.1919 5.88047L29.3678 9.70457C28.3503 10.7222 27.4815 10.9928 26.7725 10.2837L26.7752 10.2864C26.0661 9.57736 26.3367 8.70862 27.3543 7.69103L31.1784 3.86693L29.3706 2.05908L25.6953 5.73433C23.5383 7.8913 23.5086 9.87777 25.3462 11.7154" fill="#0BBBEF" fill-opacity="0.937255"/>
    <path d="M12.4014 25.3463C10.5638 23.5087 8.57733 23.5385 6.42036 25.6954L2.74512 29.3707L4.55297 31.1785L8.37706 27.3544C9.39466 26.3368 10.2634 26.0662 10.9725 26.7753L10.9698 26.7726C11.6788 27.4816 11.4082 28.3504 10.3906 29.368L6.5665 33.1921L8.37435 34.9999L12.0496 31.3247C14.2066 29.1677 14.2363 27.1812 12.3987 25.3436" fill="#0BBBEF" fill-opacity="0.937255"/>
    <path d="M8.92157 18.5319C8.92157 16.291 7.60605 15.0981 4.79278 15.0981H0V17.3017H4.98749C6.31549 17.3017 7.05937 17.6682 7.05937 18.5319V18.5272C7.05937 19.3932 6.31798 19.7573 4.98749 19.7573H0V21.9609H4.79278C7.60605 21.9609 8.92157 20.7681 8.92157 18.5272" fill="#0BBBEF" fill-opacity="0.937255"/>
    <path d="M25.3462 25.3436C23.5086 27.1812 23.5383 29.1677 25.6953 31.3247L29.3706 34.9999L31.1784 33.1921L27.3543 29.368C26.3367 28.3504 26.0661 27.4816 26.7752 26.7726L26.7725 26.7753C27.4815 26.0662 28.3503 26.3368 29.3678 27.3544L33.1919 31.1785L34.9998 29.3707L31.3246 25.6954C29.1676 23.5385 27.1811 23.5087 25.3435 25.3463" fill="#0BBBEF" fill-opacity="0.937255"/>
    <path d="M12.3987 11.7154C14.2363 9.87777 14.2066 7.8913 12.0496 5.73432L8.37436 2.05908L6.56651 3.86693L10.3906 7.69103C11.4082 8.70862 11.6788 9.57736 10.9698 10.2864L10.9725 10.2837C10.2634 10.9928 9.39466 10.7222 8.37707 9.70457L4.55298 5.88047L2.74512 7.68832L6.42037 11.3636C8.57734 13.5205 10.5638 13.5503 12.4014 11.7127" fill="#0BBBEF" fill-opacity="0.937255"/>
</svg>