<?xml version="1.0" encoding="UTF-8" standalone="no"?>
<!-- Created with Inkscape (http://www.inkscape.org/) -->

<svg
   width="58.037235mm"
   height="34.881538mm"
   viewBox="0 0 58.037235 34.881538"
   version="1.1"
   id="svg1"
   xml:space="preserve"
   inkscape:export-filename="ukmira_logo.svg"
   inkscape:export-xdpi="96"
   inkscape:export-ydpi="96"
   sodipodi:docname="ukmira_logo.svg"
   xmlns:inkscape="http://www.inkscape.org/namespaces/inkscape"
   xmlns:sodipodi="http://sodipodi.sourceforge.net/DTD/sodipodi-0.dtd"
   xmlns="http://www.w3.org/2000/svg"
   xmlns:svg="http://www.w3.org/2000/svg"><sodipodi:namedview
     id="namedview1"
     pagecolor="#505050"
     bordercolor="#ffffff"
     borderopacity="1"
     inkscape:showpageshadow="0"
     inkscape:pageopacity="0"
     inkscape:pagecheckerboard="1"
     inkscape:deskcolor="#505050"
     inkscape:document-units="mm"><inkscape:page
       x="0"
       y="0"
       width="58.037235"
       height="34.881538"
       id="page2"
       margin="29.9016 28.719999 24.5208 30.207199"
       bleed="0" /></sodipodi:namedview><defs
     id="defs1"><clipPath
       clipPathUnits="userSpaceOnUse"
       id="clipPath2"><path
         d="M 0,98.877 H 164.515 V 0 H 0 Z"
         transform="translate(-119.0854,-53.376201)"
         id="path2" /></clipPath><clipPath
       clipPathUnits="userSpaceOnUse"
       id="clipPath4"><path
         d="M 0,98.877 H 164.515 V 0 H 0 Z"
         transform="translate(-48.085401,-56.916201)"
         id="path4" /></clipPath><clipPath
       clipPathUnits="userSpaceOnUse"
       id="clipPath6"><path
         d="M 0,98.877 H 164.515 V 0 H 0 Z"
         transform="translate(-80.705402,-56.916201)"
         id="path6" /></clipPath></defs><g
     id="layer-MC1"
     inkscape:groupmode="layer"
     inkscape:label="Слой 2"
     transform="matrix(0.26458333,0,0,0.26458335,6.6043458e-6,0)"><path
       id="path1"
       d="M 0,0 -6.8,-19.12 H 6.79 Z M 0,0 -6.8,-19.12 H 6.79 Z M 0,0 -6.8,-19.12 H 6.79 Z m -15.73,-3.08 c -0.56,1.1 -1.34,1.96 -2.36,2.57 -1.02,0.61 -2.19,0.91 -3.52,0.91 h -9.98 v -14.58 h 9.98 c 1.33,0 2.5,0.31 3.52,0.92 1.02,0.61 1.8,1.46 2.36,2.55 0.55,1.1 0.83,2.36 0.83,3.8 0,1.45 -0.28,2.73 -0.83,3.83 M 0,0 -6.8,-19.12 H 6.79 Z M 0,0 -6.8,-19.12 H 6.79 Z M 0,0 -6.8,-19.12 H 6.79 Z M 0,0 -6.8,-19.12 H 6.79 Z M 0,0 -6.8,-19.12 H 6.79 Z M 0,0 -6.8,-19.12 H 6.79 Z M 0,0 -6.8,-19.12 H 6.79 Z M 0,0 -6.8,-19.12 H 6.79 Z M 0,0 -6.8,-19.12 H 6.79 Z M 0,0 -6.8,-19.12 H 6.79 Z M 0,0 -6.8,-19.12 H 6.79 Z M 0,0 -6.8,-19.12 H 6.79 Z M -6.8,-19.12 H 6.79 L 0,0 Z m 19.46,33.35 -0.62,-9.31 -0.85,9.31 -9.31,0.79 9.31,0.65 c 0,0.77 0.74,9.46 0.74,9.46 l 0.7,-9.46 9.53,-0.74 z m 7.05,-3.69 c -0.12,-0.63 -0.23,-1.27 -0.35,-1.9 -0.13,0.65 -0.26,1.3 -0.39,1.96 -0.61,0.1 -1.22,0.21 -1.84,0.32 0.62,0.11 1.24,0.21 1.86,0.32 0.12,0.65 0.24,1.3 0.35,1.94 0.13,-0.65 0.25,-1.3 0.37,-1.96 0.61,-0.1 1.23,-0.2 1.84,-0.3 -0.61,-0.13 -1.23,-0.25 -1.84,-0.38 M 5.36,9.59 C 5.98,9.7 6.6,9.81 7.22,9.92 7.34,10.56 7.45,11.21 7.57,11.86 7.69,11.2 7.81,10.55 7.94,9.9 8.55,9.8 9.16,9.7 9.78,9.59 9.16,9.47 8.55,9.34 7.94,9.22 7.82,8.58 7.7,7.95 7.59,7.31 7.46,7.97 7.33,8.62 7.2,9.27 6.59,9.38 5.97,9.49 5.36,9.59 M 5.62,7.25 C 5.13,7.15 4.64,7.04 4.15,6.94 4.05,6.44 3.96,5.93 3.87,5.42 3.76,5.94 3.66,6.47 3.56,6.99 3.07,7.07 2.58,7.16 2.08,7.25 c 0.5,0.08 1,0.17 1.49,0.25 0.09,0.52 0.19,1.04 0.28,1.56 0.1,-0.53 0.2,-1.05 0.3,-1.57 z m 5.23,-37.79 -2.94,8.28 H -7.92 l -2.94,-8.28 h -3.75 L -2.04,3.54 H 2.03 L 14.6,-30.54 Z m -4.19,52.5 c 0,0.26 0.25,3.17 0.25,3.17 L 7.14,21.96 10.31,21.71 7.15,21.48 6.94,18.36 6.66,21.48 3.57,21.74 Z m 8.06,-0.42 c 0.06,0.36 0.13,0.72 0.19,1.08 0.07,-0.37 0.14,-0.73 0.21,-1.09 0.34,-0.06 0.68,-0.12 1.02,-0.17 -0.34,-0.07 -0.68,-0.14 -1.02,-0.21 -0.07,-0.36 -0.13,-0.71 -0.2,-1.06 -0.07,0.36 -0.14,0.72 -0.21,1.09 -0.35,0.06 -0.69,0.12 -1.03,0.18 0.35,0.06 0.69,0.12 1.04,0.18 m 4.68,-2.92 c 0.09,0.52 0.18,1.04 0.28,1.55 0.1,-0.52 0.19,-1.04 0.29,-1.56 0.49,-0.09 0.98,-0.17 1.47,-0.25 -0.49,-0.1 -0.98,-0.2 -1.47,-0.3 -0.09,-0.51 -0.18,-1.01 -0.28,-1.52 -0.1,0.52 -0.2,1.04 -0.31,1.57 -0.49,0.08 -0.98,0.17 -1.47,0.25 0.5,0.09 0.99,0.17 1.49,0.26 m -0.33,8.49 h -49.21 c -2.67,0 -4.82,-2.16 -4.82,-4.82 V 3.54 h 13.19 c 2.03,0 3.82,-0.43 5.37,-1.3 1.54,-0.87 2.74,-2.09 3.6,-3.67 0.85,-1.58 1.27,-3.4 1.27,-5.48 0,-2.06 -0.42,-3.88 -1.27,-5.45 -0.86,-1.57 -2.06,-2.79 -3.6,-3.66 -1.55,-0.86 -3.34,-1.3 -5.37,-1.3 h -9.82 v -13.22 h -0.49 c 0.59,-0.27 1.25,-0.41 1.94,-0.41 h 49.21 c 2.66,0 4.82,2.16 4.82,4.82 v 48.42 c 0,2.66 -2.16,4.82 -4.82,4.82 M 0,0 -6.8,-19.12 H 6.79 Z M 0,0 -6.8,-19.12 H 6.79 Z M 0,0 -6.8,-19.12 H 6.79 Z M 0,0 -6.8,-19.12 H 6.79 Z M 0,0 -6.8,-19.12 H 6.79 Z M 0,0 -6.8,-19.12 H 6.79 Z M 0,0 -6.8,-19.12 H 6.79 Z M 0,0 -6.8,-19.12 H 6.79 Z M 0,0 -6.8,-19.12 H 6.79 Z M 0,0 -6.8,-19.12 H 6.79 Z M 0,0 -6.8,-19.12 H 6.79 Z M 0,0 -6.8,-19.12 H 6.79 Z M 0,0 -6.8,-19.12 H 6.79 Z M 0,0 -6.8,-19.12 H 6.79 Z M 0,0 -6.8,-19.12 H 6.79 Z M 0,0 -6.8,-19.12 H 6.79 Z M 0,0 -6.8,-19.12 H 6.79 Z"
       style="fill:#012662;fill-opacity:1;fill-rule:nonzero;stroke:none"
       transform="matrix(1.8034073,0,0,-1.8034073,175.2263,62.22098)"
       clip-path="url(#clipPath2)" /><path
       id="path3"
       d="M 0,0 -10.95,-24.61 -21.89,0 h -3.54 v -34.08 h 3.38 v 26.52 l 9.91,-21.78 h 2.39 L 0.16,-7.11 V -34.08 H 3.54 V 0 Z"
       style="fill:#012662;fill-opacity:1;fill-rule:nonzero;stroke:none"
       transform="matrix(1.8034073,0,0,-1.8034073,47.184378,55.836918)"
       clip-path="url(#clipPath4)" /><path
       id="path5"
       d="M 0,0 -18.52,-29.01 V 0 h -3.37 v -34.05 h 3.33 L -0.09,-5.47 V -34.05 H 3.28 V 0 Z"
       style="fill:#012662;fill-opacity:1;fill-rule:nonzero;stroke:none"
       transform="matrix(1.8034073,0,0,-1.8034073,106.01152,55.836918)"
       clip-path="url(#clipPath6)" /></g></svg>
